<svg xmlns="http://www.w3.org/2000/svg" viewBox="0 0 32 32" fill="none">
  <!-- Dark background with rounded corners -->
  <rect width="32" height="32" rx="7" fill="#050508"/>

  <defs>
    <linearGradient id="g" x1="16" y1="4.5" x2="16" y2="27.5" gradientUnits="userSpaceOnUse">
      <stop offset="0%" stop-color="#22d3ee"/>
      <stop offset="45%" stop-color="#4361EE"/>
      <stop offset="100%" stop-color="#8B5CF6"/>
    </linearGradient>
  </defs>

  <!-- Ring (r=11.5, center 16,16) -->
  <circle cx="16" cy="16" r="11.5" stroke="url(#g)" stroke-width="1.3"/>

  <!-- 0° top (cyan) -->
  <circle cx="16" cy="4.5" r="2.1" stroke="#22d3ee" stroke-width="1.1" fill="#050508"/>
  <circle cx="16" cy="4.5" r="0.8" fill="#22d3ee"/>

  <!-- 36° -->
  <circle cx="22.76" cy="6.70" r="1.85" stroke="#4361EE" stroke-width="1" fill="#050508"/>
  <circle cx="22.76" cy="6.70" r="0.7" fill="#4361EE"/>

  <!-- 72° -->
  <circle cx="26.94" cy="12.45" r="1.85" stroke="#4361EE" stroke-width="1" fill="#050508"/>
  <circle cx="26.94" cy="12.45" r="0.7" fill="#4361EE"/>

  <!-- 108° -->
  <circle cx="26.94" cy="19.55" r="1.85" stroke="#6b72f8" stroke-width="1" fill="#050508"/>
  <circle cx="26.94" cy="19.55" r="0.7" fill="#6b72f8"/>

  <!-- 144° -->
  <circle cx="22.76" cy="25.30" r="1.85" stroke="#8B5CF6" stroke-width="1" fill="#050508"/>
  <circle cx="22.76" cy="25.30" r="0.7" fill="#8B5CF6"/>

  <!-- 180° bottom (violet) -->
  <circle cx="16" cy="27.5" r="2.1" stroke="#8B5CF6" stroke-width="1.1" fill="#050508"/>
  <circle cx="16" cy="27.5" r="0.8" fill="#8B5CF6"/>

  <!-- 216° -->
  <circle cx="9.24" cy="25.30" r="1.85" stroke="#8B5CF6" stroke-width="1" fill="#050508"/>
  <circle cx="9.24" cy="25.30" r="0.7" fill="#8B5CF6"/>

  <!-- 252° -->
  <circle cx="5.06" cy="19.55" r="1.85" stroke="#6b72f8" stroke-width="1" fill="#050508"/>
  <circle cx="5.06" cy="19.55" r="0.7" fill="#6b72f8"/>

  <!-- 288° -->
  <circle cx="5.06" cy="12.45" r="1.85" stroke="#4361EE" stroke-width="1" fill="#050508"/>
  <circle cx="5.06" cy="12.45" r="0.7" fill="#4361EE"/>

  <!-- 324° -->
  <circle cx="9.24" cy="6.70" r="1.85" stroke="#4361EE" stroke-width="1" fill="#050508"/>
  <circle cx="9.24" cy="6.70" r="0.7" fill="#4361EE"/>
</svg>
